<!DOCTYPE svg PUBLIC "-//W3C//DTD SVG 1.1//EN" "http://www.w3.org/Graphics/SVG/1.1/DTD/svg11.dtd">
<!-- Uploaded to: SVG Repo, www.svgrepo.com, Transformed by: SVG Repo Mixer Tools -->
<svg height="800px" width="800px" version="1.1" id="Layer_1" xmlns="http://www.w3.org/2000/svg" xmlns:xlink="http://www.w3.org/1999/xlink" viewBox="0 0 512 512" xml:space="preserve" fill="#fff" stroke="#fff">
<g id="SVGRepo_bgCarrier" stroke-width="0"/>
<g id="SVGRepo_tracerCarrier" stroke-linecap="round" stroke-linejoin="round"/>
<g id="SVGRepo_iconCarrier"> <g transform="translate(1 1)"> <g> <path style="fill:#ffffffffffffffff;" d="M41.667,7.533c0,18.867-15.266,34.133-34.133,34.133c18.867,0,34.133,15.266,34.133,34.133 c0-18.867,15.266-34.133,34.133-34.133C56.933,41.667,41.667,26.401,41.667,7.533"/> <path style="fill:#ffffffffffffffff;" d="M75.8,383c0,4.71-3.823,8.533-8.533,8.533s-8.533-3.823-8.533-8.533s3.823-8.533,8.533-8.533 S75.8,378.29,75.8,383"/> <path style="fill:#ffffffffffffffff;" d="M33.133,229.4c0,4.71-3.823,8.533-8.533,8.533s-8.533-3.823-8.533-8.533s3.823-8.533,8.533-8.533 S33.133,224.69,33.133,229.4"/> <path style="fill:#ffffffffffffffff;" d="M451.267,314.733c0,4.71-3.823,8.533-8.533,8.533s-8.533-3.823-8.533-8.533 s3.823-8.533,8.533-8.533S451.267,310.023,451.267,314.733"/> <path style="fill:#ffffffffffffffff;" d="M511,493.933c0,4.71-3.823,8.533-8.533,8.533s-8.533-3.823-8.533-8.533s3.823-8.533,8.533-8.533 S511,489.223,511,493.933"/> <path style="fill:#ffffffffffffffff;" d="M468.333,178.2c-4.719,0-8.533-3.823-8.533-8.533v-34.133c0-4.71,3.814-8.533,8.533-8.533 c4.719,0,8.533,3.823,8.533,8.533v34.133C476.867,174.377,473.052,178.2,468.333,178.2z"/> <path style="fill:#ffffffffffffffff;" d="M485.4,161.133h-34.133c-4.719,0-8.533-3.823-8.533-8.533s3.814-8.533,8.533-8.533H485.4 c4.719,0,8.533,3.823,8.533,8.533S490.119,161.133,485.4,161.133z"/> </g> <path style="fill:#fffffffffff;" d="M366.283,502.467H143.759c-13.952,0-25.267-11.315-25.267-25.276V32.809 c0-13.96,11.315-25.276,25.267-25.276h222.524c13.961,0,25.276,11.315,25.276,25.276v444.382 C391.559,491.152,380.244,502.467,366.283,502.467"/> <polygon style="fill:#ffffffffffffffff;" points="118.467,434.132 391.533,434.132 391.533,58.665 118.467,58.665 "/> <path style="fill:#6295A2;" d="M255,205.993c8.269-18.628,26.53-35.84,48.504-35.84c29.585,0,50.893,24.073,53.572,52.762 c0,0,1.442,7.125-1.741,19.942c-4.335,17.459-14.515,32.981-28.254,44.817L255,349.353l-72.081-61.688 C169.18,275.83,159,260.316,154.665,242.857c-3.183-12.817-1.741-19.942-1.741-19.942c2.679-28.689,23.987-52.762,53.572-52.762 C228.47,170.153,246.731,187.365,255,205.993"/> <path style="fill:#ffffffffffffffff;" d="M280.805,468.333c0,14.14-11.46,25.6-25.6,25.6c-14.14,0-25.6-11.46-25.6-25.6 c0-14.14,11.46-25.6,25.6-25.6C269.345,442.733,280.805,454.194,280.805,468.333"/> <path style="fill:#fffffff;" d="M366.334,7.533h-25.6c13.961,0,25.276,11.315,25.276,25.276v444.382 c0,13.96-11.315,25.276-25.276,25.276h25.6c13.961,0,25.276-11.315,25.276-25.276V32.809 C391.61,18.848,380.295,7.533,366.334,7.533"/> <path style="fill:#FFFFFF;" d="M143.785,7.533h25.6c-13.96,0-25.276,11.315-25.276,25.276v444.382 c0,13.96,11.315,25.276,25.276,25.276h-25.6c-13.96,0-25.276-11.315-25.276-25.276V32.809 C118.509,18.848,129.833,7.533,143.785,7.533"/> <path d="M366.258,511H143.734c-18.637,0-33.801-15.164-33.801-33.809V32.809C109.933,14.164,125.097-1,143.734-1h222.524 c18.645,0,33.809,15.164,33.809,33.809v444.382C400.067,495.836,384.903,511,366.258,511z M143.734,16.067 c-9.224,0-16.734,7.509-16.734,16.742v444.382c0,9.233,7.509,16.742,16.734,16.742h222.524c9.233,0,16.742-7.509,16.742-16.742 V32.809c0-9.233-7.509-16.742-16.742-16.742H143.734z"/> <path d="M400.067,442.733H109.933V50.2h290.133V442.733z M127,425.667h256v-358.4H127V425.667z"/> <path d="M289.133,41.667h-42.667c-4.71,0-8.533-3.823-8.533-8.533s3.823-8.533,8.533-8.533h42.667c4.719,0,8.533,3.823,8.533,8.533 S293.852,41.667,289.133,41.667z"/> <path d="M220.867,41.667h-8.533c-4.71,0-8.533-3.823-8.533-8.533s3.823-8.533,8.533-8.533h8.533c4.71,0,8.533,3.823,8.533,8.533 S225.577,41.667,220.867,41.667z"/> <path d="M109.933,101.4c-4.71,0-8.533-3.823-8.533-8.533v-8.533c0-4.71,3.823-8.533,8.533-8.533c4.71,0,8.533,3.823,8.533,8.533 v8.533C118.467,97.577,114.644,101.4,109.933,101.4z"/> <path d="M109.933,135.533c-4.71,0-8.533-3.823-8.533-8.533v-8.533c0-4.71,3.823-8.533,8.533-8.533c4.71,0,8.533,3.823,8.533,8.533 V127C118.467,131.71,114.644,135.533,109.933,135.533z"/> <path d="M109.933,169.667c-4.71,0-8.533-3.823-8.533-8.533V152.6c0-4.71,3.823-8.533,8.533-8.533c4.71,0,8.533,3.823,8.533,8.533 v8.533C118.467,165.844,114.644,169.667,109.933,169.667z"/> <path d="M255,502.467c-18.824,0-34.133-15.309-34.133-34.133c0-18.824,15.309-34.133,34.133-34.133s34.133,15.309,34.133,34.133 C289.133,487.158,273.824,502.467,255,502.467z M255,451.267c-9.412,0-17.067,7.654-17.067,17.067 c0,9.412,7.654,17.067,17.067,17.067s17.067-7.654,17.067-17.067C272.067,458.921,264.412,451.267,255,451.267z"/> <path d="M255,357.895c-1.971,0-3.951-0.683-5.547-2.048l-72.081-61.688c-15.625-13.448-26.325-30.473-30.984-49.237 c-3.157-12.706-2.287-20.838-1.929-23.117c3.405-34.884,29.449-60.177,62.037-60.177c20.437,0,37.615,12.365,48.504,27.418 c10.889-15.053,28.066-27.418,48.504-27.418c32.597,0,58.641,25.284,62.046,60.177c0.358,2.278,1.229,10.411-1.929,23.117 c-4.659,18.756-15.368,35.78-30.967,49.22l-72.098,61.696C258.951,357.212,256.971,357.895,255,357.895z M161.287,224.604 c0,0-0.913,5.837,1.664,16.196c3.797,15.309,12.629,29.278,25.54,40.397L255,338.123l66.534-56.934 c12.885-11.102,21.717-25.071,25.515-40.38c2.594-10.428,1.647-16.273,1.63-16.333c-2.193-23.142-18.338-45.79-45.184-45.79 c-18.679,0-33.903,15.454-40.704,30.763c-1.374,3.08-4.429,5.069-7.799,5.069s-6.426-1.988-7.799-5.069 c-6.801-15.309-22.024-30.763-40.704-30.763c-26.837,0-42.982,22.647-45.073,45.013 C161.389,224.015,161.347,224.314,161.287,224.604L161.287,224.604z"/> <path d="M41.667,84.333c-4.71,0-8.533-3.823-8.533-8.533c0-14.114-11.486-25.6-25.6-25.6C2.823,50.2-1,46.377-1,41.667 s3.823-8.533,8.533-8.533c14.114,0,25.6-11.486,25.6-25.6c0-4.71,3.823-8.533,8.533-8.533S50.2,2.823,50.2,7.533 c0,14.114,11.486,25.6,25.6,25.6c4.71,0,8.533,3.823,8.533,8.533S80.51,50.2,75.8,50.2c-14.114,0-25.6,11.486-25.6,25.6 C50.2,80.51,46.377,84.333,41.667,84.333z M33.108,41.667c3.234,2.432,6.127,5.325,8.559,8.559 c2.432-3.234,5.325-6.127,8.559-8.559c-3.234-2.432-6.127-5.325-8.559-8.559C39.235,36.342,36.342,39.235,33.108,41.667z"/> <path d="M459.8,169.667c-4.719,0-8.533-3.823-8.533-8.533V127c0-4.71,3.814-8.533,8.533-8.533s8.533,3.823,8.533,8.533v34.133 C468.333,165.844,464.519,169.667,459.8,169.667z"/> <path d="M476.867,152.6h-34.133c-4.719,0-8.533-3.823-8.533-8.533c0-4.71,3.814-8.533,8.533-8.533h34.133 c4.719,0,8.533,3.823,8.533,8.533C485.4,148.777,481.586,152.6,476.867,152.6z"/> <path d="M67.267,374.467c0,4.71-3.823,8.533-8.533,8.533s-8.533-3.823-8.533-8.533s3.823-8.533,8.533-8.533 S67.267,369.756,67.267,374.467"/> <path d="M24.6,220.867c0,4.71-3.823,8.533-8.533,8.533s-8.533-3.823-8.533-8.533s3.823-8.533,8.533-8.533 S24.6,216.156,24.6,220.867"/> <path d="M442.733,306.2c0,4.71-3.823,8.533-8.533,8.533s-8.533-3.823-8.533-8.533s3.823-8.533,8.533-8.533 S442.733,301.49,442.733,306.2"/> <path d="M502.467,485.4c0,4.71-3.823,8.533-8.533,8.533s-8.533-3.823-8.533-8.533s3.823-8.533,8.533-8.533 S502.467,480.69,502.467,485.4"/> </g> </g>
</svg>