<!DOCTYPE svg PUBLIC "-//W3C//DTD SVG 1.1//EN" "http://www.w3.org/Graphics/SVG/1.1/DTD/svg11.dtd">
<!-- Uploaded to: SVG Repo, www.svgrepo.com, Transformed by: SVG Repo Mixer Tools -->
<svg fill="#ffffff" height="800px" width="800px" version="1.1" id="Layer_1" xmlns="http://www.w3.org/2000/svg" xmlns:xlink="http://www.w3.org/1999/xlink" viewBox="0 0 512 512" xml:space="preserve" stroke="#ffffff">
<g id="SVGRepo_bgCarrier" stroke-width="0"/>
<g id="SVGRepo_tracerCarrier" stroke-linecap="round" stroke-linejoin="round"/>
<g id="SVGRepo_iconCarrier"> <g> <g> <path d="M189.17,50.363H96.28c-5.271,0-9.545,4.274-9.545,9.545v92.89c0,5.271,4.274,9.545,9.545,9.545h92.89 c5.271,0,9.545-4.274,9.545-9.545v-92.89C198.715,54.636,194.441,50.363,189.17,50.363z M179.625,143.252h-73.8v-73.8h73.8 V143.252z"/> </g> </g> <g> <g> <path d="M454.327,94.288c5.271,0,9.545-4.274,9.545-9.545V59.908c0-5.271-4.274-9.545-9.545-9.545h-92.89 c-5.271,0-9.545,4.274-9.545,9.545v92.89c0,5.271,4.274,9.545,9.545,9.545h92.89c5.271,0,9.545-4.274,9.545-9.545v-36.875 c0-5.271-4.274-9.545-9.545-9.545c-5.271,0-9.545,4.274-9.545,9.545v27.33h-73.8v-73.8h73.8v15.291 C444.782,90.015,449.056,94.288,454.327,94.288z"/> </g> </g> <g> <g> <path d="M454.327,315.52h-92.89c-5.271,0-9.545,4.274-9.545,9.545v92.89c0,5.271,4.274,9.545,9.545,9.545h92.89 c5.271,0,9.545-4.274,9.545-9.545v-92.89C463.872,319.794,459.598,315.52,454.327,315.52z M444.782,408.41h-73.8v-73.8h73.8 V408.41z"/> </g> </g> <g> <g> <path d="M502.455,2.228H48.143c-5.271,0-9.545,4.274-9.545,9.545v374.262c0,5.271,4.274,9.545,9.545,9.545 c5.271,0,9.545-4.274,9.545-9.545V21.318H492.91V456.54h-83.382c-5.271,0-9.545,4.274-9.545,9.545 c0,5.271,4.274,9.545,9.545,9.545h92.927c5.271,0,9.545-4.274,9.545-9.545V11.773C512,6.502,507.726,2.228,502.455,2.228z"/> </g> </g> <g> <g> <path d="M377.712,456.54H119.259c-5.271,0-9.545,4.274-9.545,9.545c0,5.271,4.274,9.545,9.545,9.545h258.453 c5.271,0,9.545-4.274,9.545-9.545C387.257,460.814,382.983,456.54,377.712,456.54z"/> </g> </g> <g> <g> <path d="M271.485,116.032h-47.722c-5.271,0-9.545,4.274-9.545,9.545c0,5.271,4.274,9.545,9.545,9.545h47.722 c5.271,0,9.545-4.274,9.545-9.545C281.03,120.305,276.756,116.032,271.485,116.032z"/> </g> </g> <g> <g> <path d="M420.378,243.926h-49.395v-47.721c0-5.271-4.274-9.545-9.545-9.545s-9.545,4.274-9.545,9.545v87.808 c0,5.271,4.274,9.545,9.545,9.545s9.545-4.274,9.545-9.545v-20.997h49.395c5.271,0,9.545-4.274,9.545-9.545 C429.923,248.199,425.649,243.926,420.378,243.926z"/> </g> </g> <g> <g> <path d="M326.844,50.363h-103.08c-5.271,0-9.545,4.274-9.545,9.545c0,5.271,4.274,9.545,9.545,9.545h74.446v90.484 c-0.001,5.27,4.272,9.544,9.544,9.544c5.271,0,9.545-4.274,9.545-9.545V69.453h9.545c5.271,0,9.545-4.274,9.545-9.545 C336.389,54.636,332.115,50.363,326.844,50.363z"/> </g> </g> <g> <g> <path d="M292.159,217.6c-24.393-24.394-56.827-37.828-91.326-37.828c-34.498,0-66.931,13.434-91.326,37.828 c-24.394,24.393-37.828,56.827-37.828,91.326c0,34.498,13.434,66.931,37.828,91.326c2.95,2.949,6.018,5.735,9.192,8.359 l-78.451,78.439c-4.836,4.835-12.704,4.836-17.542,0c-4.836-4.836-4.836-12.705,0-17.542L87.8,404.402 c3.728-3.728,3.726-9.771-0.001-13.498c-3.728-3.728-9.771-3.728-13.498,0.001L9.209,456.01 c-12.279,12.279-12.279,32.259,0,44.538c5.948,5.948,13.857,9.224,22.268,9.224c0.003,0,0.006,0,0.009,0 c8.41-0.003,16.315-3.278,22.261-9.224l80.756-80.743c19.836,11.915,42.594,18.275,66.331,18.275 c34.498,0,66.931-13.434,91.326-37.828s37.828-56.828,37.828-91.326C329.988,274.427,316.553,241.994,292.159,217.6z M278.66,386.752c-20.788,20.788-48.428,32.238-77.827,32.238s-57.038-11.449-77.827-32.238 c-20.789-20.789-32.238-48.427-32.238-77.827s11.449-57.039,32.238-77.827s48.428-32.238,77.827-32.238 s57.039,11.449,77.827,32.238c20.787,20.789,32.238,48.428,32.238,77.827S299.449,365.963,278.66,386.752z"/> </g> </g> <g> <g> <path d="M267.387,242.372c-36.697-36.697-96.409-36.698-133.107,0c-17.778,17.778-27.568,41.413-27.568,66.553 c0,25.14,9.791,48.777,27.568,66.553c17.776,17.778,41.412,27.568,66.553,27.568c25.14,0,48.777-9.791,66.553-27.568 C304.084,338.782,304.084,279.07,267.387,242.372z M253.888,361.98c-14.172,14.171-33.014,21.976-53.056,21.976 s-38.883-7.805-53.054-21.976c-14.171-14.171-21.976-33.013-21.976-53.054s7.805-38.883,21.976-53.056 c14.629-14.629,33.839-21.941,53.054-21.941c19.212,0,38.43,7.315,53.056,21.941C283.142,285.124,283.142,332.726,253.888,361.98z "/> </g> </g> <g> <g> <path d="M200.834,253.043c-5.271,0-9.545,4.274-9.545,9.545s4.274,9.545,9.545,9.545c20.287,0,36.792,16.505,36.792,36.792 c0,5.271,4.274,9.545,9.545,9.545c5.271,0,9.545-4.274,9.545-9.545C256.716,278.112,231.647,253.043,200.834,253.043z"/> </g> </g> </g>
</svg>